<?xml version="1.0" encoding="UTF-8"?><svg id="Ebene_1" xmlns="http://www.w3.org/2000/svg" viewBox="0 0 44 44"><path d="m36.58,34.01c-3.46,4.2-8.71,6.88-14.58,6.88-10.43,0-18.89-8.46-18.89-18.89S11.57,3.11,22,3.11s18.89,8.46,18.89,18.89" style="fill:none; stroke:#fff; stroke-miterlimit:10; stroke-width:1.5px;"/><path d="m9.38,25.1c-.24-.99-.37-2.03-.37-3.1,0-7.17,5.82-12.99,12.99-12.99,5.55,0,10.28,3.48,12.14,8.37" style="fill:none; stroke:#fff; stroke-linecap:round; stroke-miterlimit:10; stroke-width:1.5px;"/><line x1="14.41" y1="22.63" x2="22.34" y2="22.63" style="fill:none; stroke:#fff; stroke-linecap:round; stroke-miterlimit:10; stroke-width:1.5px;"/><line x1="14.41" y1="24.86" x2="22.34" y2="24.86" style="fill:none; stroke:#fff; stroke-linecap:round; stroke-miterlimit:10; stroke-width:1.5px;"/><path d="m15.71,20.05h8.65s2.91.04,3.64,1.78h12.89" style="fill:none; stroke:#fff; stroke-linecap:round; stroke-miterlimit:10; stroke-width:1.5px;"/><path d="m15.71,27.24h8.65s2.91-.04,3.64-1.78h12.89" style="fill:none; stroke:#fff; stroke-linecap:round; stroke-miterlimit:10; stroke-width:1.5px;"/><path d="m40.77,31H14.74s-.4,3.84,4.2,4.12c4.61.28,10.15,0,10.15,0,0,0,1.41-.32,2.06-1.25" style="fill:none; stroke:#fff; stroke-linecap:round; stroke-miterlimit:10; stroke-width:1.5px;"/><line x1="31.15" y1="33.87" x2="36.69" y2="33.87" style="fill:none; stroke:#fff; stroke-linecap:round; stroke-miterlimit:10; stroke-width:1.5px;"/></svg>