<svg xmlns="http://www.w3.org/2000/svg" viewBox="0 0 44 44"><g id="Ebene_1" data-name="Ebene 1"><path style="fill:#fff;" d="M21.85,17a4.87,4.87,0,1,0,4.86,4.87h0A4.87,4.87,0,0,0,21.85,17Zm0,8.34a3.47,3.47,0,1,1,3.46-3.47A3.46,3.46,0,0,1,21.85,25.31Z"/><path style="fill:#fff;" d="M23.13,19.91a.74.74,0,0,0-.5.2.69.69,0,0,0-.2.5.7.7,0,0,0,.2.5.67.67,0,0,0,.5.21.71.71,0,0,0,0-1.41h0Z"/><path style="fill:#fff;" d="M20.25,20.6a.74.74,0,0,0-.5.2.66.66,0,0,0-.2.5.7.7,0,0,0,.2.5.71.71,0,0,0,.5.21.76.76,0,0,0,.5-.21.71.71,0,0,0,.21-.5.8.8,0,0,0-.21-.5A.7.7,0,0,0,20.25,20.6Z"/><path style="fill:#fff;" d="M22.28,22.75a.75.75,0,0,0-.5.21.66.66,0,0,0-.2.5.74.74,0,0,0,.2.5.73.73,0,0,0,1,0,.71.71,0,0,0,.21-.5.76.76,0,0,0-.21-.5A.71.71,0,0,0,22.28,22.75Z"/><path style="fill:#fff;" d="M32.51,23.38a.68.68,0,0,0-.7.7.7.7,0,0,0,.2.5.71.71,0,0,0,.5.21.76.76,0,0,0,.5-.21.71.71,0,0,0,.21-.5.7.7,0,0,0-.69-.7h0Z"/><path style="fill:#fff;" d="M33.84,26.23a.71.71,0,0,0,.21.5.67.67,0,0,0,.49.21.71.71,0,0,0,.5-.21.67.67,0,0,0,.21-.5.75.75,0,0,0-.21-.5.7.7,0,0,0-.5-.2.69.69,0,0,0-.7.68v0Z"/><path style="fill:#fff;" d="M30.14,18l1.32-1.31a1.21,1.21,0,0,0,0-1.71l-1.32-1.31a1.18,1.18,0,0,0-1.7,0L27.13,15a1.18,1.18,0,0,0-.36.85,1.21,1.21,0,0,0,.36.85L28.44,18a1.2,1.2,0,0,0,1.7,0Zm-1.88-2.16,1-1,1,1-1,1Z"/><path style="fill:#fff;" d="M35,32H33.15A1.19,1.19,0,0,0,32,33.14h0V35a1.19,1.19,0,0,0,1.19,1.19H35A1.19,1.19,0,0,0,36.15,35h0V33.14A1.2,1.2,0,0,0,35,32Zm-.22,2.79H33.36V33.35h1.38Z"/><path style="fill:#fff;" d="M27.48,26.77A.76.76,0,0,0,27,27a.67.67,0,0,0-.21.5A.73.73,0,0,0,27,28a.71.71,0,0,0,.5.21A.8.8,0,0,0,28,28a.7.7,0,0,0,.2-.5A.72.72,0,0,0,28,27,.75.75,0,0,0,27.48,26.77Z"/><path style="fill:#fff;" d="M18.15,28.09a.7.7,0,0,0-.71.7.71.71,0,0,0,.21.5.67.67,0,0,0,.5.21.75.75,0,0,0,.5-.21.7.7,0,0,0,.2-.5.68.68,0,0,0-.7-.7Z"/><path style="fill:#fff;" d="M9.78,20.65a.7.7,0,0,0-.92.36h0a22.56,22.56,0,0,0-1.8,8.91.7.7,0,1,0,1.4,0,21.46,21.46,0,0,1,1.69-8.36.71.71,0,0,0-.37-.92Z"/><path style="fill:#fff;" d="M22,9.23A.69.69,0,0,0,21,8.85h0a22.91,22.91,0,0,0-7.27,4.9.69.69,0,0,0,0,1h0a.67.67,0,0,0,.5.21.7.7,0,0,0,.5-.21,21.38,21.38,0,0,1,6.82-4.6.7.7,0,0,0,.38-.9Z"/><path style="fill:#fff;" d="M26,32a.77.77,0,0,0-.5.2.75.75,0,0,0-.21.5.76.76,0,0,0,.21.5.67.67,0,0,0,.5.21.73.73,0,0,0,.5-.21.71.71,0,0,0,.21-.5.8.8,0,0,0-.21-.5A.7.7,0,0,0,26,32Z"/><path style="fill:#fff;" d="M23.13,32.68a.75.75,0,0,0-.5.21.66.66,0,0,0-.2.5.7.7,0,0,0,.2.49.67.67,0,0,0,.5.21.71.71,0,0,0,0-1.41h0Z"/><path style="fill:#fff;" d="M39.89,38,37.54,27.6h0l-1.61-7.13h0L33.47,9.54A3.91,3.91,0,0,0,29.94,4,26,26,0,0,0,4,29.92H4a3.91,3.91,0,0,0,3.92,3.9,4,4,0,0,0,1.66-.37l4.95,1.12v3.07a2.29,2.29,0,0,0,4.58,0v-.89a.38.38,0,0,1,.38-.38h0A1.78,1.78,0,0,0,20.63,36L38.06,39.9a1.52,1.52,0,0,0,1.43-.42,1.56,1.56,0,0,0,.4-1.44ZM36.07,27.48a3.46,3.46,0,1,1-2-6.32,3.31,3.31,0,0,1,.55.05ZM11,32.33a3.86,3.86,0,0,0,.82-2.16h.94A1.8,1.8,0,0,1,14.52,32v1.17Zm10.29,1.6a3.46,3.46,0,1,1,6.19,2.13l-6.12-1.39a3.64,3.64,0,0,1-.07-.74Zm17.23,4.55a.12.12,0,0,1-.13,0l-9.42-2.12a4.87,4.87,0,0,0-8.42-4.9,5,5,0,0,0-.66,2.43,4.49,4.49,0,0,0,.06.73.41.41,0,0,0-.12.14.42.42,0,0,1-.31.17,1.79,1.79,0,0,0-1.79,1.78v.89a.88.88,0,1,1-1.76,0V32a3.21,3.21,0,0,0-3.2-3.2h-.89a18,18,0,0,1,3.31-9.33A.7.7,0,0,0,14,18.61h0a19.4,19.4,0,0,0-3.6,11.31,2.51,2.51,0,0,1-5,0h0A24.52,24.52,0,0,1,29.91,5.39h0a2.5,2.5,0,1,1,.1,5h-.1A19.38,19.38,0,0,0,18.64,14a.71.71,0,0,0-.17,1,.69.69,0,0,0,1,.16,18,18,0,0,1,10.49-3.36A3.92,3.92,0,0,0,32.36,11l2,8.8H34.1A4.87,4.87,0,0,0,34,29.47h.14a4.72,4.72,0,0,0,2.3-.57l2.13,9.44a.18.18,0,0,1,0,.14Z"/><path style="fill:#fff;" d="M17.33,16.61a.75.75,0,0,0-.21-.49.67.67,0,0,0-.5-.21.7.7,0,0,0-.5,1.2.67.67,0,0,0,.5.21.73.73,0,0,0,.5-.21A.76.76,0,0,0,17.33,16.61Z"/></g></svg>