<svg xmlns="http://www.w3.org/2000/svg" viewBox="0 0 40.19 37.4"><g id="Ebene_2" data-name="Ebene 2"><g id="Ebene_1-2" data-name="Ebene 1"><path style="fill:#fff;stroke:#fff;stroke-miterlimit:10;stroke-width:0.5px;" d="M38.31,17.49a2.25,2.25,0,0,1-.42-2A8.7,8.7,0,0,0,25.11,5.79a.58.58,0,1,0,.5,1l.09,0a7.54,7.54,0,0,1,11.07,8.43,3.41,3.41,0,0,0,.63,3,6.19,6.19,0,0,1,.38,7.24,6.08,6.08,0,0,1-4.84,2.83,28.62,28.62,0,0,0-5.87,1.22,27.07,27.07,0,0,0-5.78,2.54c.87-1.58,1.89-3.47,2.92-5.4a19,19,0,0,1,7.43-1.86.58.58,0,0,0,0-1.16A20.12,20.12,0,0,0,25.06,25c.83-1.6,1.64-3.19,2.33-4.65a15.88,15.88,0,0,1,4.17-.68.59.59,0,0,0,0-1.17h0a18.27,18.27,0,0,0-3,.35,7.19,7.19,0,0,0,1.22-4,7.35,7.35,0,0,0-4.94-7.06,2.23,2.23,0,0,1-1.4-1.45A8.71,8.71,0,0,0,12.47.65a8.29,8.29,0,0,0-5.63,5.5A2.28,2.28,0,0,1,5.39,7.56,7.36,7.36,0,0,0,.25,14.48a7.24,7.24,0,0,0,3,6c.23.18,7.45,5.92,9,14.21a2.6,2.6,0,0,0,2.33,2.12,2.58,2.58,0,0,0,1.25.32,2.62,2.62,0,0,0,1.87-.79c5.85-6.09,15.08-6.87,15.32-6.88a7.3,7.3,0,0,0,5.81-3.36A7.4,7.4,0,0,0,38.31,17.49ZM7.57,16.37a.59.59,0,0,0-.81.14.58.58,0,0,0,.13.81A19,19,0,0,1,12.06,23c-.22,2.2-.41,4.34-.56,6.11a27.79,27.79,0,0,0-3.42-5.31,29.77,29.77,0,0,0-4.17-4.23l0,0a6.08,6.08,0,0,1-2.47-5A6.19,6.19,0,0,1,5.72,8.66a3.69,3.69,0,0,0,2.2-2.14A11.08,11.08,0,0,1,9.45,3.94,6.22,6.22,0,0,1,11.33,2.4,7.54,7.54,0,0,1,21.61,5.23a7.31,7.31,0,0,1,.65,1.49,3.41,3.41,0,0,0,2.13,2.2,6.19,6.19,0,0,1,4.16,5.94,6.09,6.09,0,0,1-2.61,5A28.73,28.73,0,0,0,21.61,24a27.28,27.28,0,0,0-3.56,5.21c-.1-1.77-.22-3.91-.39-6.12A19,19,0,0,1,23,17.55a.59.59,0,0,0,.15-.81.58.58,0,0,0-.8-.15,20.19,20.19,0,0,0-4.82,4.63c-.09-1.15-.19-2.29-.3-3.39-.06-.63-.12-1.23-.19-1.79a15.59,15.59,0,0,1,3.17-2.78.58.58,0,0,0-.65-1,21.59,21.59,0,0,0-2.72,2.15c-.12-.83-.23-1.54-.34-2.13-.33-1.69-.67-2.67-1.44-2.69h0c-.76,0-1.13,1-1.5,2.65-.14.61-.27,1.34-.41,2.2a17.09,17.09,0,0,0-2.65-2.3.59.59,0,0,0-.82.13.6.6,0,0,0,.14.82A15.35,15.35,0,0,1,12.89,16c-.08.55-.17,1.14-.24,1.77-.14,1.09-.27,2.23-.4,3.38A20.19,20.19,0,0,0,7.57,16.37ZM16.1,34.54h0a1.41,1.41,0,0,1-2.77,0,21.71,21.71,0,0,0-.82-3.07c.21-2.85.66-8.21,1.23-12.84A41.15,41.15,0,0,1,15,11.21a41.27,41.27,0,0,1,1.1,7.42c.45,4.64.74,10,.89,12.87A17.8,17.8,0,0,0,16.1,34.54Zm1,.7h0A23.51,23.51,0,0,1,25.4,21.78c-2.07,4.15-4.68,8.91-6.23,11.67A20.87,20.87,0,0,0,17.09,35.24Z"/></g></g></svg>