<svg xmlns="http://www.w3.org/2000/svg" viewBox="0 0 44 44"><g id="Ebene_1" data-name="Ebene 1"><path style="fill:#fff;" d="M41.22,21a2.36,2.36,0,0,0-.9-4.55h-.08A11.54,11.54,0,0,0,28.7,5.5H14.44a11.57,11.57,0,0,0-11.55,11A2.36,2.36,0,0,0,2.78,21a4.37,4.37,0,0,0,0,6.54A2.36,2.36,0,0,0,2.9,31.9a6.87,6.87,0,0,0,6.86,6.6H33.38A6.87,6.87,0,0,0,40.24,32h.08a2.36,2.36,0,0,0,.9-4.55,4.37,4.37,0,0,0,0-6.54ZM38.94,32a5.59,5.59,0,0,1-5.56,5.16H9.76A5.57,5.57,0,0,1,4.21,32ZM13.61,8.23c.41,0,.73-.56.73-1.24V6.81H25.4c0,.1,0,.19,0,.27,0,.69.33,1.24.73,1.24s.73-.55.73-1.24a1.32,1.32,0,0,0,0-.27H28.7a10.26,10.26,0,0,1,10.23,9.6H4.21a10.29,10.29,0,0,1,8.67-9.48V7C12.88,7.67,13.21,8.23,13.61,8.23ZM38.29,27.31H5.71a3.07,3.07,0,0,1-3-3.88A3.81,3.81,0,0,1,4,24.62a3.71,3.71,0,0,0,3,1.87,3.74,3.74,0,0,0,3-1.87c.65-.84,1.09-1.36,2-1.36s1.32.52,2,1.36a3.74,3.74,0,0,0,3,1.87,3.71,3.71,0,0,0,3-1.87c.66-.84,1.1-1.36,2-1.36s1.33.52,2,1.36a3.74,3.74,0,0,0,3,1.87,3.71,3.71,0,0,0,3-1.87c.66-.84,1.1-1.36,2-1.36s1.33.52,2,1.36a3.74,3.74,0,0,0,3,1.87,3.72,3.72,0,0,0,3-1.87,3.55,3.55,0,0,1,1.31-1.23,2.92,2.92,0,0,1,.12.83A3.1,3.1,0,0,1,38.29,27.31Zm2-7.49H3.68a1.06,1.06,0,1,1,0-2.11H40.32a1.06,1.06,0,1,1,0,2.11ZM5.71,21.13H38.29a3.08,3.08,0,0,1,2.36,1.1,5,5,0,0,0-1.74,1.59c-.65.85-1.09,1.36-2,1.36s-1.33-.51-2-1.36a3.71,3.71,0,0,0-3-1.87,3.71,3.71,0,0,0-3,1.87c-.66.85-1.1,1.36-2,1.36s-1.33-.51-2-1.36a3.73,3.73,0,0,0-3-1.87,3.71,3.71,0,0,0-3,1.87c-.65.85-1.1,1.36-2,1.36s-1.33-.51-2-1.36A3.72,3.72,0,0,0,12,22a3.73,3.73,0,0,0-3,1.87c-.65.85-1.1,1.36-2,1.36s-1.33-.51-2-1.36a4.94,4.94,0,0,0-1.65-1.55A3,3,0,0,1,5.71,21.13Zm-2,7.49H40.32a1.06,1.06,0,1,1,0,2.11H3.68a1.06,1.06,0,1,1,0-2.11Z"/></g></svg>