<svg xmlns="http://www.w3.org/2000/svg" viewBox="0 0 44 44"><g id="Ebene_1" data-name="Ebene 1"><path style="fill:#fff;" d="M18.38,29.76a1.7,1.7,0,1,0-1.7,1.82A1.76,1.76,0,0,0,18.38,29.76Z"/><ellipse style="fill:#fff;" cx="27.32" cy="29.76" rx="1.7" ry="1.82"/><path style="fill:#fff;" d="M26.43,34.61a.88.88,0,0,0-1.11.55,3.58,3.58,0,0,1-6.8,0,.89.89,0,0,0-1.11-.55.88.88,0,0,0-.55,1.11,5.34,5.34,0,0,0,10.12,0A.89.89,0,0,0,26.43,34.61Z"/><path style="fill:#fff;" d="M32.11,4.63a7.72,7.72,0,0,0-2,.27,9.24,9.24,0,0,0-16.14,0,7.66,7.66,0,0,0-2-.27A7.82,7.82,0,0,0,9,19.69v4.69A1.89,1.89,0,0,0,9.89,26v5.72a12.11,12.11,0,0,0,24.22,0V26A1.89,1.89,0,0,0,35,24.38V19.69A7.82,7.82,0,0,0,32.11,4.63ZM22,42.18A10.46,10.46,0,0,1,11.55,31.73V26.29h20.9v5.44A10.46,10.46,0,0,1,22,42.18ZM34,18.31a.84.84,0,0,0-.58.79v5.28a.25.25,0,0,1-.25.25H10.87a.25.25,0,0,1-.25-.25V19.1a.84.84,0,0,0-.58-.79A6.15,6.15,0,0,1,13.25,6.44a9,9,0,0,0-.49,3,.83.83,0,0,0,1.66,0,7.58,7.58,0,0,1,15.16,0,.83.83,0,1,0,1.66,0,9,9,0,0,0-.49-2.95A6.15,6.15,0,0,1,34,18.31Z"/></g></svg>