<svg xmlns="http://www.w3.org/2000/svg" viewBox="0 0 44 44"><g id="Ebene_1" data-name="Ebene 1"><path style="fill:#fff;" d="M41.32,19a.78.78,0,0,0-.59-.24H23.37a3.59,3.59,0,0,0-.8-1.3l-.14-.16-.07-.1a.6.6,0,0,1-.09-.13l-.07-.13a1,1,0,0,1-.05-.16v-.05s0,0,0-.08a1,1,0,0,1,.07-.52s0-.05,0-.06l0,0a1.55,1.55,0,0,1,.12-.22,3.07,3.07,0,0,1,.28-.42,5.86,5.86,0,0,0,.57-.92,3.06,3.06,0,0,0,0-2.61c-.24-.53-.7-.93-1-1.45a1.16,1.16,0,0,0-.06-.16L22.14,10c0,.15,0-.18,0-.16s0-.21,0-.32a1.28,1.28,0,0,1,.09-.4V9l0,0,.15-.26a1.27,1.27,0,0,1,.13-.19l0,0v0c.12-.15.24-.29.35-.44s.1-.14.15-.21L34,9l6.64.67a.85.85,0,0,0,.85-.85.87.87,0,0,0-.85-.86l-7.45-.75-9.69-1A3,3,0,0,0,23,4.84c-.17-.24-.37-.45-.56-.67H40.73a.86.86,0,0,0,0-1.71H12.9a.86.86,0,0,0,0,1.71h.82a3.53,3.53,0,0,0,.61,1.08L13,5.11a.86.86,0,0,0-.86.86.88.88,0,0,0,.86.85L14.75,7a.35.35,0,0,0-.05.08h0l0,0A7.7,7.7,0,0,0,14,8a3.54,3.54,0,0,0-.33,2.61,4.88,4.88,0,0,0,1,1.74l.18.3s0,.11,0,.14,0,.13.05.19c0-.11,0,.14,0,.15s0,.31,0,.16a1,1,0,0,1-.14.46,14.65,14.65,0,0,0-1.11,1.93,2.76,2.76,0,0,0,.36,2.43,8.34,8.34,0,0,0,.53.65H3.27a.86.86,0,0,0-.85.86,19.56,19.56,0,0,0,9.45,16.76,19,19,0,0,0,4.81,2.08v.61a3.34,3.34,0,0,0,.23,1.63c.5,1,1.59.85,2.49.85h6a3.63,3.63,0,0,0,.65,0,1.71,1.71,0,0,0,1.3-1.67V38.46A19.84,19.84,0,0,0,40.65,25.6a19.37,19.37,0,0,0,.93-6A.77.77,0,0,0,41.32,19ZM20.55,4.17a3.87,3.87,0,0,0,.82,1.32l.14.16.07.09.09.15.06.11L20,5.82a2.71,2.71,0,0,0-.43-1c-.17-.24-.36-.45-.55-.67Zm-.84,7.67c-.24-.53-.7-.93-1-1.45,0,0-.05-.15-.06-.16L18.63,10c0,.15,0-.18,0-.16s0-.21,0-.32a1.28,1.28,0,0,1,.09-.4V9l0,0a2.15,2.15,0,0,1,.14-.26c0-.07.09-.13.13-.19l0,0,0,0,.34-.44a2.86,2.86,0,0,0,.34-.54l.67.06.67.07c-.08.11-.16.23-.23.35a3.59,3.59,0,0,0-.33,2.61,5,5,0,0,0,1,1.74,2.38,2.38,0,0,1,.18.3s0,.11.05.14a1.33,1.33,0,0,1,0,.19c0-.11,0,.14,0,.15s0,.31,0,.16a1.18,1.18,0,0,1-.15.46,14.65,14.65,0,0,0-1.11,1.93,2.76,2.76,0,0,0,.36,2.43c.17.23.35.44.54.65H19.87a3.88,3.88,0,0,0-.8-1.3,1.07,1.07,0,0,1-.14-.16l-.08-.1-.09-.13-.07-.13c0-.05,0-.11-.05-.16v-.05a.28.28,0,0,0,0-.08,1.13,1.13,0,0,1,.07-.52s0-.05,0-.06l0,0,.12-.22a3.07,3.07,0,0,1,.28-.42,5.86,5.86,0,0,0,.57-.92A3.06,3.06,0,0,0,19.71,11.84ZM17.05,4.17a3.69,3.69,0,0,0,.81,1.32l.11.13-1.45-.15a2.67,2.67,0,0,0-.32-.63c-.17-.24-.37-.45-.56-.67Zm-.67,7.67c-.24-.53-.69-.93-1-1.45,0,0-.05-.15-.05-.16a1.1,1.1,0,0,1-.06-.26c0,.15,0-.18,0-.16s0-.21,0-.32a2.33,2.33,0,0,1,.09-.4l0-.06,0,0a2.2,2.2,0,0,1,.15-.26l.12-.19,0,0v0l.35-.44a3.22,3.22,0,0,0,.48-.87l1.27.13a5.31,5.31,0,0,0-.49.68A3.64,3.64,0,0,0,17,10.6a5,5,0,0,0,1,1.74,2.38,2.38,0,0,1,.18.3.93.93,0,0,1,.05.14,1.33,1.33,0,0,1,.05.19c0-.11,0,.14,0,.15s0,.31,0,.16a1.39,1.39,0,0,1-.14.46A13.67,13.67,0,0,0,17,15.67a2.79,2.79,0,0,0,.36,2.43c.17.23.36.44.54.65h-1.4a3.88,3.88,0,0,0-.8-1.3l-.14-.16-.08-.1-.09-.13a.56.56,0,0,0-.07-.13c0-.05,0-.11,0-.16l0-.05v-.08a1,1,0,0,1,.06-.52.39.39,0,0,0,0-.06l0,0a.94.94,0,0,1,.12-.22,4.32,4.32,0,0,1,.27-.42,5.92,5.92,0,0,0,.58-.92A3.06,3.06,0,0,0,16.38,11.84Zm2,28h0a0,0,0,0,1,0,0Zm7.22,0h.05Zm11.7-11a18,18,0,0,1-6.71,6.44A17.23,17.23,0,0,1,26.24,37a.88.88,0,0,0-.63.83v2h0s0,0,0,0h-7.2c0-.16,0-.33,0-.5V37.8a.88.88,0,0,0-.63-.83,18,18,0,0,1-13-12.59,16.51,16.51,0,0,1-.62-3.92h35.7A17.94,17.94,0,0,1,37.31,28.84ZM7.72,25.73a.86.86,0,1,0,1.65-.45,15.32,15.32,0,0,1-.53-1.75.86.86,0,0,0-1-.6A.88.88,0,0,0,7.19,24,14.74,14.74,0,0,0,7.72,25.73ZM9,28.37a14.72,14.72,0,0,0,8,6.14c1.06.33,1.51-1.32.46-1.65a12.86,12.86,0,0,1-6.94-5.35C9.9,26.58,8.42,27.43,9,28.37Z"/></g></svg>