<svg xmlns="http://www.w3.org/2000/svg" viewBox="0 0 44 44"><g id="Ebene_1" data-name="Ebene 1"><path style="fill:#fff;" d="M37.22,24.69a.63.63,0,0,0-.49-.24H35.28a5.87,5.87,0,0,0-1.89-2.36,4.58,4.58,0,0,0,0-2.51,7.31,7.31,0,0,0-2.64-3.73c.16-2-.33-6-6.28-7.73-1-.29-1.32-1-1.87-2.08-.23-.46-.49-1-.83-1.54a.61.61,0,0,0-.62-.28.63.63,0,0,0-.49.48c-.15.75-.39,1.82-.64,2.62-.17.53-.52.74-1.11,1.06a4.57,4.57,0,0,0-2.24,2.28,4.4,4.4,0,0,0-.37,2.08,6.26,6.26,0,0,0-3.18,1.7,5.5,5.5,0,0,0-1.48,4.65,6.65,6.65,0,0,0-2.46,2.55,5.8,5.8,0,0,0-.63,2.81H7.27a.63.63,0,0,0-.49.24.65.65,0,0,0-.09.54l4.36,14.13a.6.6,0,0,0,.58.42H32.37a.6.6,0,0,0,.58-.42l4.36-14.13A.65.65,0,0,0,37.22,24.69ZM22.6,38.57V25.66h6.52L26.54,38.57Zm-5.44,0L15.05,25.66h6.34V38.57Zm.66-27.38a3.31,3.31,0,0,1,1.73-1.75,2.94,2.94,0,0,0,1.67-1.76c.12-.35.22-.75.32-1.14l0,0c.57,1.17,1.11,2.27,2.61,2.72,4.33,1.28,5.35,3.79,5.44,5.67l-.07,0-.42-.27-.2-.12-.65-.38a11.09,11.09,0,0,0-2-.79,23,23,0,0,0-6.56-1h0q-.51,0-1,0l-.25,0c-.31,0-.62.05-.92.09h0A3,3,0,0,1,17.82,11.19Zm-3.76,4.07a5.52,5.52,0,0,1,3.06-1.45l.6-.1a14,14,0,0,1,2-.13,22.23,22.23,0,0,1,6.1.9,9.68,9.68,0,0,1,1.87.74l.56.32a16.15,16.15,0,0,1,1.55,1.05,6.44,6.44,0,0,1,2.47,3.29,3.55,3.55,0,0,1,.07,1.39h0l-.15-.1L32,21.05l-.16-.1-.18-.11-.17-.09-.2-.11-.18-.09-.2-.1-.19-.09-.21-.1-.2-.09-.22-.1L29.88,20l-.22-.1-.22-.08-.22-.09L29,19.63l-.23-.08-.24-.08-.23-.08-.24-.08-.25-.08-.24-.08-.25-.07L27.06,19l-.25-.07-.25-.07-.25-.07-.26-.07-.25-.06-.26-.07-.26-.06L25,18.47l-.26-.06-.26-.05-.26-.06L24,18.25l-.26-.06-.26-.05-.26-.05-.26,0L22.66,18l-.25,0-.27,0-.25,0-.26,0-.25,0-.26,0-.25,0-.26,0-.24,0-.27,0-.22,0-.26,0-.22,0-.27,0h-.2l-.28,0H17.58a11.42,11.42,0,0,0-3.29.39l-.68.23-.2.08-.45.19-.12,0A4.34,4.34,0,0,1,14.06,15.26ZM10.31,22.2a5.57,5.57,0,0,1,2.35-2.28,10.1,10.1,0,0,1,2-.84,10.28,10.28,0,0,1,2.92-.34c4.89,0,11.71,1.76,14.3,3.69l.34.26.07.06h0a7.79,7.79,0,0,1,1.62,1.65H9.81A4.58,4.58,0,0,1,10.31,22.2ZM8.09,25.66h5.73l2.12,12.91H12.07ZM31.93,38.57H27.78l2.58-12.91h5.55Z"/></g></svg>