<svg xmlns="http://www.w3.org/2000/svg" viewBox="0 0 44 44"><g id="Ebene_1" data-name="Ebene 1"><g id="Gruppe_273" data-name="Gruppe 273"><g id="Gruppe_272" data-name="Gruppe 272"><g id="Pfad_498" data-name="Pfad 498"><path style="fill:#fff;" d="M10.21,9.05h0a5.45,5.45,0,0,1,2.64.85,26.33,26.33,0,0,1,7,6.74l0,0v0a2.61,2.61,0,0,0,.47.47,2.65,2.65,0,0,0,3.73-.47v0l0,0a26.29,26.29,0,0,1,7-6.73,5.45,5.45,0,0,1,2.64-.85A1.36,1.36,0,0,1,35,9.55a1.26,1.26,0,0,1,0,1.22,2.41,2.41,0,0,0,0,1.88A2.44,2.44,0,0,0,36.23,14a1.45,1.45,0,0,1,.34.2,1.86,1.86,0,0,1,.77,1.27A1.92,1.92,0,0,1,37,16.87l-.14.18a2.41,2.41,0,0,0,.41,3.36l.13.11.23.23a1.92,1.92,0,0,1-.25,2.73l-.06.05-.11.1a2.4,2.4,0,0,0-.37,3.29l.13.18a1.69,1.69,0,0,1,.19.32A1.93,1.93,0,0,1,36.29,30l0,0a2.4,2.4,0,0,0-1.31,1.36,2.45,2.45,0,0,0,0,1.88l0,.06,0,0a.36.36,0,0,1,0,.09,1,1,0,0,1,0,1,1.43,1.43,0,0,1-1.22.53,5.63,5.63,0,0,1-2.62-.84,26.52,26.52,0,0,1-7-6.76v0l0,0a2.28,2.28,0,0,0-.47-.46,2.65,2.65,0,0,0-3.72.46l0,0v0a26.59,26.59,0,0,1-7,6.73,5.52,5.52,0,0,1-2.62.86,1.67,1.67,0,0,1-.92-.22,1,1,0,0,1-.4-1.24s.05-.11.09-.19l0,0v0A2.47,2.47,0,0,0,7.77,30a2.43,2.43,0,0,1-.35-.2A1.94,1.94,0,0,1,7,27.12l.14-.18a2.41,2.41,0,0,0-.37-3.33l-.08-.06-.09-.08a2.5,2.5,0,0,1-.23-.23,2,2,0,0,1-.45-1.41,1.88,1.88,0,0,1,.68-1.32l0,0h0l.11-.1A2.4,2.4,0,0,0,7.12,17L7,16.89a2,2,0,0,1-.18-.32A1.92,1.92,0,0,1,7.7,14l.06,0A2.48,2.48,0,0,0,9,10.73,1.26,1.26,0,0,1,9,9.54a1.41,1.41,0,0,1,1.22-.49m0-1.4a2.48,2.48,0,0,0-2.47,3.66,1.07,1.07,0,0,1-.54,1.4l-.06,0a3.33,3.33,0,0,0-1.59,4.44,3.65,3.65,0,0,0,.32.54L6,17.9a1,1,0,0,1-.16,1.38l-.18.16a3.33,3.33,0,0,0-.4,4.7,3,3,0,0,0,.4.39l.18.16A1,1,0,0,1,6,26.08l-.15.18a3.35,3.35,0,0,0,.73,4.67,3.12,3.12,0,0,0,.59.34,1.07,1.07,0,0,1,.55,1.4h0s0,.1-.08.16a2.38,2.38,0,0,0,.94,3.09,3.12,3.12,0,0,0,1.63.41,6.78,6.78,0,0,0,3.35-1.06A27.93,27.93,0,0,0,21,28.16a1.25,1.25,0,0,1,1-.48,1.23,1.23,0,0,1,.77.26,2.28,2.28,0,0,1,.22.22,27.63,27.63,0,0,0,7.42,7.12,6.87,6.87,0,0,0,3.35,1.07c2.23,0,3.3-1.84,2.57-3.51,0-.06,0-.11-.08-.16a1.08,1.08,0,0,1,.56-1.41l0,0a3.33,3.33,0,0,0,1.6-4.43,3.81,3.81,0,0,0-.33-.55L38,26.08a1,1,0,0,1,.16-1.39l.18-.16a3.31,3.31,0,0,0,.4-4.68,2.52,2.52,0,0,0-.4-.4,1.19,1.19,0,0,0-.18-.15A1,1,0,0,1,38,17.91l.14-.19a3.33,3.33,0,0,0-.72-4.66,3.16,3.16,0,0,0-.59-.35,1.05,1.05,0,0,1-.55-1.39h0a2.48,2.48,0,0,0-2.47-3.66,7,7,0,0,0-3.38,1.05A27.93,27.93,0,0,0,23,15.83a1.28,1.28,0,0,1-1,.48,1.3,1.3,0,0,1-.77-.26,1.52,1.52,0,0,1-.22-.22,27.66,27.66,0,0,0-7.43-7.12,6.94,6.94,0,0,0-3.37-1.06Z"/></g></g></g><path style="fill:none;stroke:#fff;stroke-linecap:round;stroke-miterlimit:10;stroke-width:1.4px;" d="M14.5,19.6a10,10,0,0,1,7.22,2.15,14.23,14.23,0,0,0,7.21,2.56"/><path style="fill:none;stroke:#fff;stroke-linecap:round;stroke-miterlimit:10;stroke-width:1.4px;" d="M29.5,19.6a10,10,0,0,0-7.22,2.15,14.28,14.28,0,0,1-7.22,2.56"/></g></svg>