<svg xmlns="http://www.w3.org/2000/svg" viewBox="0 0 44 44"><g id="Ebene_1" data-name="Ebene 1"><path style="fill:none;stroke:#fff;stroke-linecap:round;stroke-linejoin:round;stroke-width:1.4px;" d="M33.27,18.78a2.54,2.54,0,0,1-3.48,2.34,2.84,2.84,0,0,1,.14.88,2.59,2.59,0,0,1-2.54,2.51,2.67,2.67,0,0,1,.25,1.13A2.61,2.61,0,0,1,25,28.17h0a2.39,2.39,0,0,1,.14.88,2.6,2.6,0,0,1-1.62,2.34,2.63,2.63,0,0,1,.39,1.42,2.59,2.59,0,0,1-2.65,2.52,1.86,1.86,0,0,1-.34,0,4.41,4.41,0,0,1,0,.52,2.57,2.57,0,0,1-4,2.1,2.58,2.58,0,0,1-5.15-.22c0-.1,0-.2,0-.3l-.08,0a2.55,2.55,0,0,1-1.89.76,2.58,2.58,0,0,1-2.51-2.65,2.33,2.33,0,0,1,.06-.53h0a2.58,2.58,0,1,1-3.29-3.58,2.58,2.58,0,0,1-.56-4.43,2.57,2.57,0,0,1,1.33-4.82,2,2,0,0,1,.59.09,2.85,2.85,0,0,1,0-.51,2.6,2.6,0,0,1,2.65-2.52,3.43,3.43,0,0,1,.56.08c0-.08,0-.15,0-.23A2.57,2.57,0,0,1,13,17.21a2.58,2.58,0,0,1,5.1-.23,2.57,2.57,0,0,1,4.33.14,2.57,2.57,0,0,1,1.73-2.34,2.57,2.57,0,0,1,2.63-2.38,1.72,1.72,0,0,1,1.26.66c.54.64.88,1.56,1.26,2,.59.67,2.15,1.46,3.13,2.33a2,2,0,0,1,.84,1.4Z"/><path style="fill:none;stroke:#fff;stroke-linecap:round;stroke-linejoin:round;stroke-width:1.4px;" d="M40.87,13.28a3.08,3.08,0,0,1-4.35,0l-4.09,4.1c-1-.87-2.54-1.66-3.13-2.33-.38-.43-.72-1.35-1.26-2l4.13-4.13a3.08,3.08,0,1,1,4.35,0,3.08,3.08,0,0,1,4.35,4.35Z"/><path style="fill:none;stroke:#fff;stroke-linecap:round;stroke-linejoin:round;stroke-width:1.4px;" d="M9.83,24.59a2.82,2.82,0,0,1,2.82-2.82"/><path style="fill:none;stroke:#fff;stroke-linecap:round;stroke-linejoin:round;stroke-width:1.4px;" d="M10.7,30.7a2.82,2.82,0,0,1-4,0"/><path style="fill:none;stroke:#fff;stroke-linecap:round;stroke-linejoin:round;stroke-width:1.4px;" d="M18,32.82a2.84,2.84,0,0,1-4,0"/><path style="fill:none;stroke:#fff;stroke-linecap:round;stroke-linejoin:round;stroke-width:1.4px;" d="M21.32,28.09a2.82,2.82,0,0,0-4,0"/><path style="fill:none;stroke:#fff;stroke-linecap:round;stroke-linejoin:round;stroke-width:1.4px;" d="M19.89,22.53a2.83,2.83,0,0,0-2.82-2.83"/><path style="fill:none;stroke:#fff;stroke-linecap:round;stroke-linejoin:round;stroke-width:1.4px;" d="M24.3,21.11a2.83,2.83,0,0,0,2.83-2.82"/></g></svg>