<svg xmlns="http://www.w3.org/2000/svg" viewBox="0 0 44 44"><g id="Ebene_1" data-name="Ebene 1"><path d="M30.84,17.57c-1.45-5-7.35-10.21-14.1-10.21C9,7.36,2.68,14.13,2.68,19.73c0,5.23,5.25,6.76,10.51,7.17a8.73,8.73,0,0,0-.38,2.44c0,6.54,8.21,7.3,14.39,7.3,6.57,0,14.12-.81,14.12-7.17C41.32,24.83,36.79,19.36,30.84,17.57ZM4,19.73a9.89,9.89,0,0,1,2.62-6.15.64.64,0,0,0,.4.11s3-.21,8.16,2.83a.64.64,0,0,0,.35.1.66.66,0,0,0,.58-.34.68.68,0,0,0-.24-.93,19.82,19.82,0,0,0-8.08-3,14.54,14.54,0,0,1,2.8-2,.77.77,0,0,0,.37,0s3.83-.69,11.08,4.84a.64.64,0,0,0,.41.14.67.67,0,0,0,.41-1.21c-4.31-3.29-7.5-4.51-9.54-4.94a11.86,11.86,0,0,1,3.38-.5A14.22,14.22,0,0,1,29.27,17.2a13.56,13.56,0,0,0-2.4-.23,14.43,14.43,0,0,0-8.61,3A72.34,72.34,0,0,1,6.61,18.8a.69.69,0,0,0-.8.54.67.67,0,0,0,.54.79,71,71,0,0,0,10.36,1.14,14,14,0,0,0-3,4.29C7.13,25.11,4,23.23,4,19.73ZM27.2,35.28c-8.89,0-13-1.89-13-5.94a9.89,9.89,0,0,1,2.62-6.15.65.65,0,0,0,.41.11s2.95-.21,8.16,2.83a.59.59,0,0,0,.34.1.66.66,0,0,0,.58-.34A.67.67,0,0,0,26,25,20,20,0,0,0,18,22a14.93,14.93,0,0,1,2.81-2,.77.77,0,0,0,.37,0s3.83-.69,11.08,4.84a.64.64,0,0,0,.41.14.67.67,0,0,0,.54-.26.68.68,0,0,0-.12-.95c-4.32-3.29-7.51-4.51-9.55-4.94a11.92,11.92,0,0,1,3.38-.5A14.21,14.21,0,0,1,39.48,27a.62.62,0,0,0-.31.14c-5.31,4.54-22.26,1.32-22.43,1.28a.69.69,0,0,0-.8.54.67.67,0,0,0,.54.79,70.92,70.92,0,0,0,12.05,1.17c4.35,0,8.78-.59,11.31-2.6A6.62,6.62,0,0,1,40,29.47C40,33.49,36,35.28,27.2,35.28Z" style="fill:#fff"/></g></svg>