<svg xmlns="http://www.w3.org/2000/svg" viewBox="0 0 44 44"><g id="Ebene_1" data-name="Ebene 1"><path style="fill:#fff;" d="M32.56,2.64a.68.68,0,0,0-.66-.5H12.07a.67.67,0,0,0-.66.52,41.94,41.94,0,0,0-1,8.61c0,2.38.89,6.16,1.76,9.81a60.36,60.36,0,0,1,1.5,7.63c.25,3.24,0,12.37,0,12.46a.65.65,0,0,0,.19.49.67.67,0,0,0,.48.2h15.3a.68.68,0,0,0,.68-.68.5.5,0,0,0,0-.12c0-1-.19-9.3.05-12.35a60.27,60.27,0,0,1,1.5-7.62c.87-3.66,1.76-7.44,1.76-9.82A37,37,0,0,0,32.56,2.64Zm-2,18.14A60.15,60.15,0,0,0,29,28.61c-.22,2.81-.1,9.68-.06,11.9H15c.05-2.22.17-9.09,0-11.9a58.31,58.31,0,0,0-1.54-7.84c-.84-3.58-1.72-7.28-1.72-9.5a41.62,41.62,0,0,1,.87-7.78H31.37a36.62,36.62,0,0,1,.89,7.78C32.26,13.5,31.38,17.2,30.54,20.78Z"/><path style="fill:#fff;" d="M29.84,11H14.16a.64.64,0,0,0-.49.21.66.66,0,0,0-.19.5,59.57,59.57,0,0,0,1.66,8.69,59.52,59.52,0,0,1,1.57,8.09c.17,2.24.13,7,.09,9.62a.63.63,0,0,0,.19.49.67.67,0,0,0,.48.2h9a.67.67,0,0,0,.48-.2.63.63,0,0,0,.19-.48c0-3.23-.06-7.52.11-9.63a60.11,60.11,0,0,1,1.57-8.09,59.32,59.32,0,0,0,1.66-8.69.66.66,0,0,0-.19-.5A.64.64,0,0,0,29.84,11Zm-2.3,9.1a61,61,0,0,0-1.6,8.28c-.16,2-.15,5.92-.12,9.07H18.16c0-3.15.06-7-.1-9.06a60.43,60.43,0,0,0-1.61-8.32,74.92,74.92,0,0,1-1.56-7.72h2.59a.87.87,0,0,0,1.73,0h9.9A74,74,0,0,1,27.54,20.09Z"/><path style="fill:#fff;" d="M24.25,18.14a1.43,1.43,0,0,0,0-2.85,1.43,1.43,0,1,0,0,2.85Z"/><path style="fill:#fff;" d="M21.59,22.87a.87.87,0,1,0-.87-.87A.87.87,0,0,0,21.59,22.87Z"/><path style="fill:#fff;" d="M23.38,26.46a1,1,0,1,0-1-1A1,1,0,0,0,23.38,26.46Z"/><path style="fill:#fff;" d="M22.87,29.53a.88.88,0,1,0,.87.88A.87.87,0,0,0,22.87,29.53Z"/><path style="fill:#fff;" d="M21.59,34.68a.67.67,0,1,0,.67.67A.67.67,0,0,0,21.59,34.68Z"/><path style="fill:#fff;" d="M21.59,28.62a.71.71,0,1,0-.71-.71A.71.71,0,0,0,21.59,28.62Z"/></g></svg>