<svg xmlns="http://www.w3.org/2000/svg" viewBox="0 0 44 44"><g id="Ebene_1" data-name="Ebene 1"><path style="fill:#fff;fill-rule:evenodd;" d="M22,1.2A20.8,20.8,0,1,0,42.8,22,20.82,20.82,0,0,0,22,1.2Zm0,39.68A18.88,18.88,0,1,1,40.88,22,18.9,18.9,0,0,1,22,40.88Z"/><path style="fill:#fff;fill-rule:evenodd;" d="M26.86,11.74c-3.35,1.14-3.87,4.9-3.78,8.2.49-3.38,3.61-5.69,6.86-6.24a11.79,11.79,0,0,0-5.8,6.91,55.73,55.73,0,0,0-3.65,10.14c-.55-1.92-1.1-3.57-1.58-5.47-.3-.94-.62-1.88-1-2.81-1.79-4.64-4.45-8.87-9.26-10.41,5.49,5.5,7.47,12.58,8.89,20,.18.92.35,1.85.51,2.78.49,1.16.49,4.18,1.87,3.36a4.41,4.41,0,0,0,2-3.31c.14-.69.23-1.42.34-2.13.85-3.59,1.4-7.52,2.65-11.09,2.35-1,4.74-1.21,6.37-3.76s1.37-5.57,3.42-8.16C32.67,12.7,29.7,10.78,26.86,11.74Z"/></g></svg>