<svg xmlns="http://www.w3.org/2000/svg" viewBox="0 0 44 44"><g id="Ebene_1" data-name="Ebene 1"><path style="fill:none;stroke:#fff;stroke-linecap:round;stroke-linejoin:round;stroke-width:1.4px;" d="M43.16,12c0,1.14-2.16,1-4.32,1.37l-.19,0a8.32,8.32,0,0,0-2,.53,5,5,0,0,0-1.71,1,4.9,4.9,0,0,1-2.23,1.62c-2.55,1.08-3.69.59-6.24,1.67S25.6,21,22,21s-2-1.68-4.51-2.77-3.7-.59-6.23-1.67a5.53,5.53,0,0,1-2.39-1.76,5.24,5.24,0,0,0-1.55-.9,10.16,10.16,0,0,0-2.88-.65l-1.19-.13C1.89,13,.84,12.75.84,12c0-1.53,3.93-.84,6.47-1.92s1.4-1.58,3.94-2.66,3.69-.59,6.24-1.68S18.4,2.94,22,2.94c3,0,2.36,1.17,3.56,2.19a7.85,7.85,0,0,0-4.21,6.08,7.86,7.86,0,0,0,7.81.91A7.76,7.76,0,0,0,33.4,7.7c1.62.94.67,1.69,3.44,2.39,3.57.91,6.32.34,6.32,1.87Z"/><path style="fill:none;stroke:#fff;stroke-linecap:round;stroke-linejoin:round;stroke-width:1.4px;" d="M43.16,22c0,1.14-2.16,1.05-4.32,1.37a8.29,8.29,0,0,0-2.15.56A4.86,4.86,0,0,0,35,25a5,5,0,0,1-2.23,1.62c-2.55,1.08-3.69.59-6.24,1.67S25.6,31,22,31s-2-1.68-4.51-2.77-3.7-.59-6.23-1.67a5.53,5.53,0,0,1-2.39-1.76,5,5,0,0,0-1.55-.9,14.8,14.8,0,0,0-4.07-.78C1.89,23,.84,22.79.84,22c0-1.54,3.93-.84,6.47-1.92L7.55,20c.63.31,1.31.66,2.05,1.07,1.46.82,1.27.81,3.79,2.27,4.8,2.75,5.86,3,6.8,3.08A11.59,11.59,0,0,0,25,25.57a42.22,42.22,0,0,0,3.88-1.83A34.26,34.26,0,0,1,34,22.07c1.49-.46,3.17-1,4.62-1.58,2.65.41,4.51.25,4.51,1.51Z"/><path style="fill:none;stroke:#fff;stroke-linecap:round;stroke-linejoin:round;stroke-width:1.4px;" d="M43.16,32c0,1.14-2.16,1.05-4.32,1.37a8.7,8.7,0,0,0-2.15.55A4.84,4.84,0,0,0,35,35a4.91,4.91,0,0,1-2.23,1.61c-2.55,1.09-3.69.59-6.24,1.68S25.6,41.06,22,41.06s-2-1.67-4.51-2.76-3.7-.59-6.23-1.68a5.54,5.54,0,0,1-2.39-1.75A5.21,5.21,0,0,0,7.32,34a15.58,15.58,0,0,0-4.07-.78C1.89,33,.84,32.83.84,32c0-1.54,3.93-.84,6.47-1.93l.24-.1c.63.31,1.31.66,2.05,1.07,1.46.82,1.27.81,3.79,2.27,4.8,2.75,5.86,3,6.8,3.07A11.6,11.6,0,0,0,25,35.61a40,40,0,0,0,3.88-1.84A35.33,35.33,0,0,1,34,32.11c1.49-.46,3.17-1,4.62-1.58,2.65.41,4.51.24,4.51,1.51Z"/><path style="fill:none;stroke:#fff;stroke-linecap:round;stroke-linejoin:round;stroke-width:1.4px;" d="M42.35,17.46c-.14,1.23-1.71,2.21-3.7,3-1.45.61-3.13,1.12-4.62,1.58a34.26,34.26,0,0,0-5.17,1.67A42.22,42.22,0,0,1,25,25.57a11.59,11.59,0,0,1-4.79.82c-.94-.08-2-.33-6.8-3.08C10.87,21.85,11.06,21.86,9.6,21c-.74-.41-1.42-.76-2-1.07C3.63,18,1.86,17.88,1.65,16.69S3,14.2,4.44,13.24a10.16,10.16,0,0,1,2.88.65,5.24,5.24,0,0,1,1.55.9,5.53,5.53,0,0,0,2.39,1.76,10.46,10.46,0,0,0,1.2.43c1.78.53,2.93.35,5,1.24C20,19.31,18.4,21,22,21s2-1.68,4.51-2.77c2.11-.9,3.26-.71,5-1.24a11.85,11.85,0,0,0,1.2-.43A4.9,4.9,0,0,0,35,14.93a5,5,0,0,1,1.71-1,8.32,8.32,0,0,1,2-.53c1.91,1.1,3.86,2.61,3.7,4.1Z"/><path style="fill:none;stroke:#fff;stroke-linecap:round;stroke-linejoin:round;stroke-width:1.4px;" d="M42.35,27.49c-.14,1.23-1.71,2.22-3.7,3-1.45.6-3.13,1.12-4.62,1.58a35.33,35.33,0,0,0-5.17,1.66A40,40,0,0,1,25,35.61a11.6,11.6,0,0,1-4.79.81c-.94-.07-2-.32-6.8-3.07-2.52-1.46-2.33-1.45-3.79-2.27-.74-.41-1.42-.76-2-1.07-3.92-1.94-5.69-2.09-5.9-3.29S3,24.24,4.44,23.27a10.52,10.52,0,0,1,2.88.66,5,5,0,0,1,1.55.9,5.53,5.53,0,0,0,2.39,1.76c.44.18.83.32,1.2.43,1.78.52,2.93.35,5,1.24C20,29.35,18.4,31,22,31s2-1.68,4.51-2.77c2.11-.9,3.26-.72,5-1.24a11.85,11.85,0,0,0,1.2-.43A5,5,0,0,0,35,25a4.86,4.86,0,0,1,1.71-1,8.32,8.32,0,0,1,2-.53c1.91,1.1,3.86,2.61,3.7,4.09Z"/><path style="fill:none;stroke:#fff;stroke-linecap:round;stroke-linejoin:round;stroke-width:1.4px;" d="M33.87,5.81A7.7,7.7,0,0,1,33.4,7.7a7.76,7.76,0,0,1-4.24,4.42,7.86,7.86,0,0,1-7.81-.91,7.85,7.85,0,0,1,4.21-6.08c.16-.09.32-.16.49-.24a7.88,7.88,0,0,1,7.82.92Z"/><path style="fill:none;stroke:#fff;stroke-linecap:round;stroke-linejoin:round;stroke-width:1.4px;" d="M31.11,7a32.23,32.23,0,0,0-7.25,2.95,23.63,23.63,0,0,1-4.7,2.13A9.65,9.65,0,0,1,13.24,12"/></g></svg>