<svg xmlns="http://www.w3.org/2000/svg" viewBox="0 0 44 44"> <g id="Ebene_1" data-name="Ebene 1"><polygon style="fill:none;stroke:#fff;stroke-linecap:round;stroke-linejoin:round;stroke-width:1.4px;" points="41.32 7.02 41.32 41.3 15.56 41.3 15.56 7.02 41.32 7.02 41.32 7.02"/><polygon style="fill:none;stroke:#fff;stroke-linecap:round;stroke-linejoin:round;stroke-width:1.4px;" points="28.44 2.7 15.56 7.02 15.56 36.98 2.68 36.98 2.68 2.7 28.44 2.7 28.44 2.7"/><polygon style="fill:none;stroke:#fff;stroke-linecap:round;stroke-linejoin:round;stroke-width:1.4px;" points="28.44 2.7 28.44 7.02 15.56 7.02 28.44 2.7 28.44 2.7"/><line style="fill:none;stroke:#fff;stroke-linecap:round;stroke-linejoin:round;stroke-width:1.4px;" x1="15.56" y1="9.98" x2="6.82" y2="9.98"/><line style="fill:none;stroke:#fff;stroke-linecap:round;stroke-linejoin:round;stroke-width:1.4px;" x1="15.56" y1="13.92" x2="6.82" y2="13.92"/><line style="fill:none;stroke:#fff;stroke-linecap:round;stroke-linejoin:round;stroke-width:1.4px;" x1="15.56" y1="17.87" x2="6.82" y2="17.87"/><line style="fill:none;stroke:#fff;stroke-linecap:round;stroke-linejoin:round;stroke-width:1.4px;" x1="15.56" y1="21.81" x2="6.82" y2="21.81"/><line style="fill:none;stroke:#fff;stroke-linecap:round;stroke-linejoin:round;stroke-width:1.4px;" x1="15.56" y1="25.76" x2="6.82" y2="25.76"/><line style="fill:none;stroke:#fff;stroke-linecap:round;stroke-linejoin:round;stroke-width:1.4px;" x1="15.56" y1="29.7" x2="6.82" y2="29.7"/><path style="fill:#fff;" d="M35.5,20.62l0,0h0c-.52-.21-.93-.86-1.38-1.39L34,19.11h-.08L33.55,19l-.61-.24c-.08-.17-.4-.65-.49-.82-.32-.44.17-.44,0-.93a.71.71,0,0,0-.48-.49l-.29-.12a1.28,1.28,0,0,1-.57-.37,6.62,6.62,0,0,1-.37-.61h0a4.3,4.3,0,0,1-.16-.41,19.14,19.14,0,0,0-8.09,1.22l6.83,18.39,6.59-13.83Z"/></g></svg>