<?xml version="1.0" encoding="UTF-8"?><svg xmlns="http://www.w3.org/2000/svg" viewBox="0 0 44 44"><g id="a"/><g id="b"><g><path d="M27.44,36.95h2.81l.86-7.52c-1.2-1.58-3.4-1.58-3.4-1.58h-.16s-2.2,0-3.39,1.58l.86,7.52h2.8" style="fill:none; stroke:#fff; stroke-linecap:round; stroke-miterlimit:10; stroke-width:1.31px;"/><path d="M17.02,40.38h-5.58c-.79,0-1.43-.64-1.43-1.43V12.93" style="fill:none; stroke:#fff; stroke-miterlimit:10; stroke-width:1.31px;"/><path d="M11.02,12.89l.28-2.69c.1-.95,.85-1.73,1.67-1.73h7.74c.82,0,1.57,.78,1.67,1.73l.29,2.72H8.9" style="fill:none; stroke:#fff; stroke-linecap:round; stroke-linejoin:round; stroke-width:1.31px;"/><polyline points="15.23 8.44 15.87 2.11 17.77 2.11 18.44 8.44" style="fill:none; stroke:#fff; stroke-linejoin:round; stroke-width:1.31px;"/><polyline points="30.18 17.32 28.98 10.66 26.19 10.66 25.08 17.32" style="fill:none; stroke:#fff; stroke-linecap:round; stroke-linejoin:round; stroke-width:1.31px;"/><g><path d="M22.69,22.28s-9.28,17.5,.4,19.96h4.92" style="fill:none; stroke:#fff; stroke-miterlimit:10; stroke-width:1.31px;"/><path d="M32.57,22.28s9.47,17.5-.2,19.96h-4.92" style="fill:none; stroke:#fff; stroke-miterlimit:10; stroke-width:1.31px;"/></g><rect x="21.92" y="17.35" width="11.42" height="4.92" style="fill:none; stroke:#fff; stroke-linecap:round; stroke-linejoin:round; stroke-width:1.31px;"/><g><line x1="27.63" y1="19.94" x2="27.63" y2="22.26" style="fill:none; stroke:#fff; stroke-linecap:round; stroke-miterlimit:10; stroke-width:1.31px;"/><line x1="30.43" y1="19.94" x2="30.43" y2="22.26" style="fill:none; stroke:#fff; stroke-linecap:round; stroke-miterlimit:10; stroke-width:1.31px;"/><line x1="24.83" y1="19.94" x2="24.83" y2="22.26" style="fill:none; stroke:#fff; stroke-linecap:round; stroke-miterlimit:10; stroke-width:1.31px;"/></g></g></g></svg>