<svg xmlns="http://www.w3.org/2000/svg" viewBox="0 0 44 44"><g id="Ebene_1" data-name="Ebene 1"><path style="fill:none;stroke:#fff;stroke-linecap:round;stroke-linejoin:round;stroke-width:1.4px;" d="M15.2,10.59a1.43,1.43,0,0,1,1.56,1.29l.92,9.39a1.33,1.33,0,0,0,.15-.6L18.24,5.5A1.44,1.44,0,0,0,16.85,4L14.75,4a1.43,1.43,0,0,0-1.47,1.39l-.15,5.42Z"/><path style="fill:none;stroke:#fff;stroke-linecap:round;stroke-linejoin:round;stroke-width:1.4px;" d="M26.19,12.08v8.51a1.17,1.17,0,0,1,.88-.41h2.34l.34-12.65a1.43,1.43,0,0,0-1.39-1.47L26.26,6a1.43,1.43,0,0,0-1.47,1.39l-.09,3.26h.06A1.43,1.43,0,0,1,26.19,12.08Z"/><path style="fill:none;stroke:#fff;stroke-linecap:round;stroke-linejoin:round;stroke-width:1.4px;" d="M33.33,20.18H27.07a1.18,1.18,0,0,0-1.17,1.18v4.22H17.49V21.36a1.18,1.18,0,0,0-1.17-1.18H10.05a1.18,1.18,0,0,0-1.17,1.18V28l1.19,11A1.05,1.05,0,0,0,11.13,40H32.26A1.05,1.05,0,0,0,33.32,39L34.51,28V21.36A1.18,1.18,0,0,0,33.33,20.18Z"/><path style="fill:none;stroke:#fff;stroke-linecap:round;stroke-linejoin:round;stroke-width:1.4px;" d="M17.49,25.58h3.69a1.5,1.5,0,0,0,.24-.7L22.59,9.75a1.43,1.43,0,0,0-1.32-1.53l-2.09-.16a1.45,1.45,0,0,0-1,.31l-.33,12.3a1.4,1.4,0,0,1-.34.89Z"/><path style="fill:none;stroke:#fff;stroke-linecap:round;stroke-linejoin:round;stroke-width:1.4px;" d="M10.05,20.18h4L13.13,10a1.42,1.42,0,0,0-1.56-1.29l-2.09.19a1.43,1.43,0,0,0-1.29,1.56l1,10.19A1.16,1.16,0,0,1,10.05,20.18Z"/><path style="fill:none;stroke:#fff;stroke-linecap:round;stroke-linejoin:round;stroke-width:1.4px;" d="M25.9,25.58V21.36a.49.49,0,0,1,0-.12v0a.17.17,0,0,0,0-.07s0,0,0-.05a.07.07,0,0,1,0,0S26,21,26,21v0l0-.07,0,0,0-.07,0,0,0-.07h0l.06-.07h0V12.08a1.43,1.43,0,0,0-1.43-1.43H22.52l-1.1,14.22a1.29,1.29,0,0,1-.19.62v.08Z"/><path style="fill:none;stroke:#fff;stroke-linecap:round;stroke-linejoin:round;stroke-width:1.4px;" d="M32.51,20.18V10.11a1.43,1.43,0,0,0-1.43-1.43H29.72l-.31,11.5Z"/><path style="fill:none;stroke:#fff;stroke-linecap:round;stroke-linejoin:round;stroke-width:1.4px;" d="M34.55,8.28l-2.09-.23a1.43,1.43,0,0,0-1.35.63,1.44,1.44,0,0,1,1.4,1.43V20.18h.82a1.18,1.18,0,0,1,1.18,1.18v.22l1.3-11.72A1.43,1.43,0,0,0,34.55,8.28Z"/><polygon style="fill:none;stroke:#fff;stroke-linecap:round;stroke-linejoin:round;stroke-width:1.4px;" points="33.55 36.83 33.98 32.85 9.41 32.85 9.84 36.83 33.55 36.83"/><path style="fill:none;stroke:#fff;stroke-linecap:round;stroke-linejoin:round;stroke-width:1.4px;" d="M16.32,20.18a1.18,1.18,0,0,1,1.17,1.18v4.22h.61l-1.34-13.7a1.43,1.43,0,0,0-1.56-1.29l-2,.2.88,9.39Z"/></g></svg>